# xmcd
#
# Track frame offsets: 
#        150
#        12250
#        25380
#        38182
#        52637
#        68890
#        84852
#        97937
#        117680
#        134022
#        152102
#        172737
#        187340
#        206340
#        221730
#        237562
#        253672
#        270707
#        288260
#
# Disc length: 4096 seconds
#
# Revision: 4
# Processed by: cddbd v1.5.2PL0 Copyright (c) Steve Scherf et al.
# Submitted via: ExactAudioCopyFreeDBPlugin 1.0
#
DISCID=110ffe13
DTITLE=The Main Ingredient - All Time Greatest Hits
DYEAR=1989
DGENRE=Soul
TTITLE0=Can't Stand Your Love
TTITLE1=You've Been My Inspiration
TTITLE2=Magic Shoes
TTITLE3=I'm Better Off Without You
TTITLE4=I'm So Proud
TTITLE5=Black Seeds Keep on Growing
TTITLE6=California My Way
TTITLE7=Girl Blue
TTITLE8=Of This I'm Sure
TTITLE9=Good Old Days
TTITLE10=Rolling Down a Mountainside
TTITLE11=Spinning Around (I Must Be Falling in Love)
TTITLE12=Instant Love
TTITLE13=Everybody Plays the Fool
TTITLE14=You've Got to Take It (If You Want It)
TTITLE15=Just Don't Want to Be Lonely
TTITLE16=Make it with You
TTITLE17=No Tears (In the End)
TTITLE18=Shame on the World
EXTD=
EXTT0=
EXTT1=
EXTT2=
EXTT3=
EXTT4=
EXTT5=
EXTT6=
EXTT7=
EXTT8=
EXTT9=
EXTT10=
EXTT11=
EXTT12=
EXTT13=
EXTT14=
EXTT15=
EXTT16=
EXTT17=
EXTT18=
PLAYORDER=
